# Blender 3.3.0
# www.blender.org
mtllib rail-redusys.mtl
o Rail
v -1.295864 -0.123625 0.005939
v -1.295927 -0.088625 -0.009061
v -1.295927 -0.123625 -0.009061
v 0.204059 -0.123625 -0.015380
v 0.204122 -0.123625 -0.000380
v 0.204091 -0.123625 -0.007879
v 0.204091 -0.088625 -0.007879
v 0.204059 -0.088625 -0.015380
v 0.204122 -0.088625 -0.000380
v -1.295864 -0.088625 0.005939
v -0.529584 -0.106125 -0.019789
v -0.532967 -0.089809 -0.027275
v -0.542026 -0.076575 -0.027237
v -0.570997 -0.064742 -0.027114
v -0.600546 -0.077153 -0.026990
v -0.600483 -0.077153 -0.011990
v -0.609307 -0.090477 -0.026953
v -0.609244 -0.090477 -0.011954
v -0.612316 -0.106125 -0.011940
v -0.608964 -0.122441 -0.011955
v -0.599968 -0.135674 -0.026992
v -0.599905 -0.135674 -0.011992
v -0.586644 -0.144435 -0.027049
v -0.532687 -0.121772 -0.027276
v -0.541994 -0.076575 -0.019736
v -0.555318 -0.067815 -0.019681
v -0.570965 -0.064742 -0.019614
v -0.587282 -0.068094 -0.019546
v -0.609276 -0.090477 -0.019453
v -0.600515 -0.077153 -0.019490
v -0.612348 -0.106125 -0.019441
v -0.608996 -0.122441 -0.019454
v -0.599936 -0.135674 -0.019493
v -0.586613 -0.144435 -0.019548
v -0.570965 -0.147508 -0.019614
v -0.554650 -0.144155 -0.019684
v -0.532656 -0.121772 -0.019776
v -0.541416 -0.135097 -0.019739
v -0.529615 -0.106125 -0.027289
v -0.541448 -0.135097 -0.027239
v -0.554681 -0.144155 -0.027183
v -0.570997 -0.147508 -0.027114
v -0.609027 -0.122441 -0.026955
v -0.612380 -0.106125 -0.026940
v -0.587313 -0.068094 -0.027046
v -0.555350 -0.067815 -0.027180
v -0.529552 -0.106125 -0.012289
v -0.532904 -0.089809 -0.012275
v -0.541962 -0.076575 -0.012237
v -0.555287 -0.067815 -0.012180
v -0.570934 -0.064742 -0.012115
v -0.587250 -0.068094 -0.012046
v -0.586581 -0.144435 -0.012049
v -0.570934 -0.147508 -0.012115
v -0.554618 -0.144155 -0.012183
v -0.541385 -0.135097 -0.012239
v -0.532624 -0.121772 -0.012276
v -0.046002 -0.106125 -0.029326
v -0.058350 -0.076575 -0.014274
v -0.071674 -0.067815 -0.014218
v -0.103637 -0.068094 -0.014083
v -0.125414 -0.122441 -0.028992
v -0.125351 -0.122441 -0.013992
v -0.116356 -0.135674 -0.029030
v -0.116293 -0.135674 -0.014030
v -0.087384 -0.147508 -0.029152
v -0.087321 -0.147508 -0.014152
v -0.071068 -0.144155 -0.029220
v -0.071005 -0.144155 -0.014221
v -0.049011 -0.121772 -0.014313
v -0.045970 -0.106125 -0.021826
v -0.058381 -0.076575 -0.021775
v -0.071705 -0.067815 -0.021718
v -0.087353 -0.064742 -0.021652
v -0.103668 -0.068094 -0.021583
v -0.125662 -0.090477 -0.021490
v -0.116902 -0.077153 -0.021528
v -0.128734 -0.106125 -0.021477
v -0.125382 -0.122441 -0.021491
v -0.116324 -0.135674 -0.021530
v -0.103000 -0.144435 -0.021586
v -0.087353 -0.147508 -0.021652
v -0.071036 -0.144155 -0.021721
v -0.049042 -0.121772 -0.021813
v -0.057803 -0.135097 -0.021777
v -0.049074 -0.121772 -0.029313
v -0.057835 -0.135097 -0.029276
v -0.103031 -0.144435 -0.029086
v -0.128767 -0.106125 -0.028977
v -0.125694 -0.090477 -0.028990
v -0.116933 -0.077153 -0.029027
v -0.103700 -0.068094 -0.029083
v -0.087384 -0.064742 -0.029152
v -0.071737 -0.067815 -0.029218
v -0.058413 -0.076575 -0.029274
v -0.049354 -0.089809 -0.029312
v -0.045939 -0.106125 -0.014326
v -0.049291 -0.089809 -0.014312
v -0.087321 -0.064742 -0.014152
v -0.116870 -0.077153 -0.014027
v -0.125631 -0.090477 -0.013991
v -0.128703 -0.106125 -0.013978
v -0.102968 -0.144435 -0.014086
v -0.057772 -0.135097 -0.014276
v -1.013227 -0.106125 -0.025252
v -1.016580 -0.089809 -0.025237
v -1.016517 -0.089809 -0.010237
v -1.038900 -0.067815 -0.010143
v -1.054610 -0.064742 -0.025077
v -1.070926 -0.068094 -0.025009
v -1.070863 -0.068094 -0.010009
v -1.084159 -0.077153 -0.024953
v -1.095992 -0.106125 -0.024903
v -1.095929 -0.106125 -0.009903
v -1.092577 -0.122441 -0.009917
v -1.083519 -0.135674 -0.009955
v -1.070258 -0.144435 -0.025011
v -1.038294 -0.144155 -0.025146
v -1.025061 -0.135097 -0.025202
v -1.013196 -0.106125 -0.017752
v -1.025608 -0.076575 -0.017699
v -1.038931 -0.067815 -0.017644
v -1.054579 -0.064742 -0.017578
v -1.070894 -0.068094 -0.017508
v -1.092888 -0.090477 -0.017416
v -1.084128 -0.077153 -0.017453
v -1.095960 -0.106125 -0.017403
v -1.092608 -0.122441 -0.017417
v -1.083550 -0.135674 -0.017456
v -1.070226 -0.144435 -0.017511
v -1.054579 -0.147508 -0.017578
v -1.038262 -0.144155 -0.017646
v -1.016268 -0.121772 -0.017739
v -1.025030 -0.135097 -0.017702
v -1.016300 -0.121772 -0.025238
v -1.054610 -0.147508 -0.025077
v -1.083582 -0.135674 -0.024955
v -1.092640 -0.122441 -0.024917
v -1.092920 -0.090477 -0.024916
v -1.038963 -0.067815 -0.025143
v -1.025639 -0.076575 -0.025200
v -1.013164 -0.106125 -0.010252
v -1.025576 -0.076575 -0.010200
v -1.054547 -0.064742 -0.010077
v -1.084096 -0.077153 -0.009953
v -1.092857 -0.090477 -0.009916
v -1.070194 -0.144435 -0.010012
v -1.054547 -0.147508 -0.010077
v -1.038231 -0.144155 -0.010146
v -1.024998 -0.135097 -0.010202
v -1.016237 -0.121772 -0.010239
vn -0.0042 -0.0000 -1.0000
vn 0.0042 -0.0000 1.0000
vn -1.0000 -0.0000 0.0042
vn -0.0000 -1.0000 -0.0000
vn 1.0000 -0.0000 -0.0042
vn -0.0000 1.0000 -0.0000
vn 1.0000 0.0001 -0.0042
vn 0.9189 0.3944 -0.0039
vn 0.7001 0.7140 -0.0030
vn 0.9190 0.3942 -0.0038
vn 0.9190 0.3943 -0.0038
vn 0.9190 0.3943 -0.0039
vn 0.3782 0.9257 -0.0016
vn 0.7000 0.7141 -0.0030
vn -0.0000 1.0000 -0.0001
vn 0.3781 0.9258 -0.0016
vn -0.3943 0.9190 0.0017
vn -0.9257 0.3782 0.0039
vn -0.9257 0.3782 0.0040
vn -0.7140 0.7002 0.0030
vn -0.7141 0.7001 0.0030
vn -0.7141 0.7001 0.0031
vn -0.3943 0.9190 0.0016
vn -0.3943 0.9190 0.0015
vn -0.9258 0.3781 0.0039
vn 0.7001 0.7140 -0.0029
vn 1.0000 -0.0000 -0.0043
vn 0.9190 0.3943 -0.0040
vn 0.9191 0.3941 -0.0037
vn 0.7002 0.7139 -0.0028
vn 0.7002 0.7140 -0.0029
vn -0.7140 0.7001 0.0030
vn -0.9257 0.3781 0.0039
vn -0.9190 -0.3943 0.0038
vn -0.9190 -0.3943 0.0039
vn -0.7001 -0.7141 0.0030
vn -0.7001 -0.7141 0.0029
vn -0.3781 -0.9258 0.0016
vn -0.3781 -0.9258 0.0015
vn -0.7001 -0.7140 0.0029
vn -0.7001 -0.7140 0.0030
vn -0.9190 -0.3942 0.0038
vn -0.9190 -0.3942 0.0039
vn -0.3781 -0.9257 0.0016
vn -1.0000 -0.0001 0.0042
vn -0.0000 -1.0000 0.0001
vn 0.3943 -0.9190 -0.0017
vn 0.9258 -0.3781 -0.0039
vn 0.7141 -0.7001 -0.0030
vn 0.7140 -0.7001 -0.0030
vn 0.3942 -0.9190 -0.0017
vn 1.0000 -0.0000 -0.0041
vn 0.9258 -0.3781 -0.0038
vn 0.3943 -0.9190 -0.0016
vn 0.9257 -0.3782 -0.0039
vn 0.7140 -0.7001 -0.0031
vn 0.7141 -0.7000 -0.0030
vn 0.3944 -0.9189 -0.0016
vn -0.0043 -0.0000 -1.0000
vn -0.0041 -0.0001 -1.0000
vn -0.0043 -0.0001 -1.0000
vn -0.0043 0.0001 -1.0000
vn 0.0043 0.0001 1.0000
vn 0.0044 -0.0000 1.0000
vn 0.0043 -0.0001 1.0000
vn 0.0042 -0.0001 1.0000
vn 0.0041 0.0001 1.0000
vn 0.0041 -0.0000 1.0000
vn 0.0042 0.0001 1.0000
vn 1.0000 0.0001 -0.0043
vn 0.9190 0.3942 -0.0039
vn 1.0000 -0.0001 -0.0042
vn 0.7001 0.7141 -0.0029
vn 0.7001 0.7141 -0.0030
vn 0.3781 0.9257 -0.0016
vn -0.3942 0.9190 0.0017
vn -0.7141 0.7000 0.0030
vn -1.0000 -0.0000 0.0043
vn 1.0000 -0.0001 -0.0041
vn -0.0000 1.0000 0.0001
vn -0.7140 0.7001 0.0031
vn -0.7000 -0.7141 0.0030
vn -0.0000 -1.0000 -0.0001
vn 0.3943 -0.9190 -0.0015
vn 0.9257 -0.3782 -0.0040
vn -0.3781 -0.9257 0.0015
vn 0.9257 -0.3781 -0.0039
vn 0.3942 -0.9190 -0.0016
vn -0.0042 0.0001 -1.0000
vn -0.0042 -0.0002 -1.0000
vn -0.0042 -0.0001 -1.0000
vn -0.9258 0.3780 0.0039
vn -1.0000 0.0001 0.0042
vn -0.3782 -0.9257 0.0016
vn -0.9190 -0.3943 0.0040
vn -0.3780 -0.9258 0.0016
vn -0.7000 -0.7141 0.0029
vn -0.9189 -0.3944 0.0038
vn 0.7141 -0.7001 -0.0031
vn 0.0041 -0.0001 1.0000
vn 0.0043 -0.0000 1.0000
vn 0.0040 -0.0001 1.0000
vt 0.000000 0.998535
vt 0.070000 0.021483
vt 0.954427 0.511483
vt 0.045202 0.000000
vt 0.046667 0.011483
vt 0.958584 0.032059
vt 0.023333 0.000000
vt 0.070000 0.011483
vt 0.958584 0.520576
vt 0.023333 0.998535
vt 0.050823 0.936894
vt 0.070000 0.010000
vt 0.000000 0.000000
vt 0.046667 0.927802
vt 0.070000 0.000000
vt 0.070000 0.005000
vt 0.046667 0.005000
vt 0.045202 0.998535
vt 0.046667 0.010000
vt 0.050823 0.448378
vt 0.021868 0.000000
vt 0.046667 0.000000
vt 0.046667 0.439285
vt 0.021868 0.998535
vt 0.046667 0.021483
vt 0.954427 0.022967
vt 0.346414 0.000000
vt 0.346414 0.998535
vt 0.374525 0.064408
vt 0.304004 0.096402
vt 0.374525 0.126386
vt 0.269326 0.045509
vt 0.374525 0.249634
vt 0.158419 0.000000
vt 0.374525 0.376020
vt 0.045299 0.047731
vt 0.318302 0.376020
vt 0.421289 0.270571
vt 0.374525 0.437644
vt 0.011761 0.098973
vt 0.318302 0.437644
vt 0.387751 0.219329
vt 0.318302 0.499268
vt 0.375990 0.159151
vt 0.318302 0.563675
vt 0.388823 0.096402
vt 0.374525 0.625654
vt 0.047511 0.272794
vt 0.318302 0.625654
vt 0.423501 0.045509
vt 0.374525 0.687278
vt 0.098518 0.306487
vt 0.374525 0.936911
vt 0.305076 0.219329
vt 0.346414 0.126386
vt 0.346414 0.188010
vt 0.346414 0.249634
vt 0.346414 0.314042
vt 0.346414 0.437644
vt 0.346414 0.376020
vt 0.346414 0.499268
vt 0.346414 0.563675
vt 0.346414 0.625654
vt 0.346414 0.687278
vt 0.346414 0.748901
vt 0.346414 0.813309
vt 0.346414 0.936911
vt 0.346414 0.875288
vt 0.374525 0.000000
vt 0.374525 0.998535
vt 0.316837 0.159151
vt 0.374525 0.875288
vt 0.271538 0.270571
vt 0.374525 0.813309
vt 0.220879 0.305410
vt 0.374525 0.748901
vt 0.158419 0.318302
vt 0.374525 0.563675
vt 0.012833 0.221901
vt 0.374525 0.499268
vt 0.000000 0.159151
vt 0.374525 0.314042
vt 0.095958 0.012892
vt 0.374525 0.188010
vt 0.218320 0.011816
vt 0.318302 0.000000
vt 0.318302 0.998535
vt 0.692827 0.159151
vt 0.318302 0.064408
vt 0.679994 0.221901
vt 0.318302 0.126386
vt 0.645316 0.272794
vt 0.318302 0.188010
vt 0.594309 0.306487
vt 0.318302 0.249634
vt 0.534409 0.318302
vt 0.318302 0.314042
vt 0.471948 0.305410
vt 0.318302 0.687278
vt 0.474508 0.011816
vt 0.318302 0.748901
vt 0.534409 0.000000
vt 0.318302 0.813309
vt 0.596869 0.012892
vt 0.318302 0.875288
vt 0.647528 0.047731
vt 0.318302 0.936911
vt 0.681066 0.098973
vt 0.374525 0.000000
vt 0.374525 0.998535
vt 0.534409 0.318302
vt 0.318302 0.126386
vt 0.269326 0.272794
vt 0.318302 0.188010
vt 0.218320 0.306487
vt 0.318302 0.314042
vt 0.095958 0.305410
vt 0.374525 0.563675
vt 0.471948 0.012892
vt 0.318302 0.563675
vt 0.012833 0.096402
vt 0.374525 0.625654
vt 0.421289 0.047731
vt 0.318302 0.625654
vt 0.047511 0.045509
vt 0.374525 0.748901
vt 0.375990 0.159151
vt 0.318302 0.748901
vt 0.158419 0.000000
vt 0.374525 0.813309
vt 0.388823 0.221901
vt 0.318302 0.813309
vt 0.220879 0.012892
vt 0.318302 0.936911
vt 0.305076 0.098973
vt 0.346414 0.000000
vt 0.346414 0.998535
vt 0.346414 0.126386
vt 0.346414 0.188010
vt 0.346414 0.249634
vt 0.346414 0.314042
vt 0.346414 0.437644
vt 0.346414 0.376020
vt 0.346414 0.499268
vt 0.346414 0.563675
vt 0.346414 0.625654
vt 0.346414 0.687278
vt 0.346414 0.748901
vt 0.346414 0.813309
vt 0.346414 0.936911
vt 0.346414 0.875288
vt 0.374525 0.936911
vt 0.474508 0.306487
vt 0.374525 0.875288
vt 0.423501 0.272794
vt 0.374525 0.687278
vt 0.387751 0.098973
vt 0.374525 0.499268
vt 0.534409 0.000000
vt 0.374525 0.437644
vt 0.594309 0.011816
vt 0.374525 0.376020
vt 0.645316 0.045509
vt 0.374525 0.314042
vt 0.679994 0.096402
vt 0.374525 0.249634
vt 0.692827 0.159151
vt 0.374525 0.188010
vt 0.681066 0.219329
vt 0.374525 0.126386
vt 0.647528 0.270571
vt 0.374525 0.064408
vt 0.596869 0.305410
vt 0.318302 0.000000
vt 0.318302 0.998535
vt 0.316837 0.159151
vt 0.318302 0.064408
vt 0.304004 0.221901
vt 0.318302 0.249634
vt 0.158419 0.318302
vt 0.318302 0.376020
vt 0.045299 0.270571
vt 0.318302 0.437644
vt 0.011761 0.219329
vt 0.318302 0.499268
vt 0.000000 0.159151
vt 0.318302 0.687278
vt 0.098518 0.011816
vt 0.318302 0.875288
vt 0.271538 0.047731
vt 0.374525 0.000000
vt 0.374525 0.998535
vt 0.316837 0.159151
vt 0.374525 0.064408
vt 0.304004 0.096402
vt 0.318302 0.064408
vt 0.679994 0.221901
vt 0.318302 0.188010
vt 0.594309 0.306487
vt 0.374525 0.249634
vt 0.158419 0.000000
vt 0.374525 0.314042
vt 0.095958 0.012892
vt 0.318302 0.314042
vt 0.471948 0.305410
vt 0.374525 0.376020
vt 0.045299 0.047731
vt 0.374525 0.499268
vt 0.000000 0.159151
vt 0.318302 0.499268
vt 0.375990 0.159151
vt 0.318302 0.563675
vt 0.388823 0.096402
vt 0.318302 0.625654
vt 0.423501 0.045509
vt 0.374525 0.687278
vt 0.098518 0.306487
vt 0.374525 0.813309
vt 0.220879 0.305410
vt 0.374525 0.875288
vt 0.271538 0.270571
vt 0.346414 0.000000
vt 0.346414 0.998535
vt 0.346414 0.126386
vt 0.346414 0.188010
vt 0.346414 0.249634
vt 0.346414 0.314042
vt 0.346414 0.437644
vt 0.346414 0.376020
vt 0.346414 0.499268
vt 0.346414 0.563675
vt 0.346414 0.625654
vt 0.346414 0.687278
vt 0.346414 0.748901
vt 0.346414 0.813309
vt 0.346414 0.936911
vt 0.346414 0.875288
vt 0.374525 0.936911
vt 0.305076 0.219329
vt 0.374525 0.748901
vt 0.158419 0.318302
vt 0.374525 0.625654
vt 0.047511 0.272794
vt 0.374525 0.563675
vt 0.012833 0.221901
vt 0.374525 0.437644
vt 0.011761 0.098973
vt 0.374525 0.188010
vt 0.218320 0.011816
vt 0.374525 0.126386
vt 0.269326 0.045509
vt 0.318302 0.000000
vt 0.318302 0.998535
vt 0.692827 0.159151
vt 0.318302 0.126386
vt 0.645316 0.272794
vt 0.318302 0.249634
vt 0.534409 0.318302
vt 0.318302 0.376020
vt 0.421289 0.270571
vt 0.318302 0.437644
vt 0.387751 0.219329
vt 0.318302 0.687278
vt 0.474508 0.011816
vt 0.318302 0.748901
vt 0.534409 0.000000
vt 0.318302 0.813309
vt 0.596869 0.012892
vt 0.318302 0.875288
vt 0.647528 0.047731
vt 0.318302 0.936911
vt 0.681066 0.098973
s 0
usemtl *16
f 11/27/7 39/69/7 12/29/8
f 25/55/9 12/29/10 13/31/9
f 48/89/11 11/27/5 12/29/12
f 25/55/9 13/31/9 46/84/13 26/56/13
f 25/55/14 48/89/12 12/29/12
f 14/33/6 27/57/15 26/56/16 46/84/16
f 45/82/17 28/58/17 27/57/6 14/33/6
f 17/39/18 29/59/19 30/60/20 15/35/20
f 15/35/21 30/60/22 28/58/23 45/82/24
f 44/80/3 31/61/3 29/59/25 17/39/25
f 26/56/16 50/93/16 49/91/26 25/55/26
f 47/86/27 11/27/27 48/89/28
f 50/93/16 26/56/16 27/57/6 51/95/6
f 48/89/29 25/55/30 49/91/31
f 51/95/6 27/57/6 28/58/23 52/97/17
f 30/60/32 16/37/32 52/97/17 28/58/17
f 29/59/25 18/41/25 16/37/21 30/60/21
f 31/61/3 19/43/3 18/41/33 29/59/33
f 31/61/3 44/80/3 43/78/34 32/62/35
f 21/47/36 33/63/37 32/62/35 43/78/35
f 23/51/38 34/64/39 33/63/40 21/47/41
f 33/63/40 22/49/40 20/45/42 32/62/43
f 34/64/38 53/99/38 22/49/40 33/63/40
f 34/64/44 23/51/44 42/76/4 35/65/4
f 19/43/3 31/61/45 32/62/35 20/45/34
f 35/65/4 42/76/46 41/74/47 36/66/47
f 24/53/48 37/67/48 38/68/49 40/72/49
f 40/72/50 38/68/50 36/66/51 41/74/51
f 39/70/52 11/28/5 37/67/53 24/53/53
f 35/65/4 54/101/4 53/99/38 34/64/38
f 54/101/4 35/65/46 36/66/54 55/103/47
f 37/67/55 57/107/55 56/105/50 38/68/56
f 11/28/5 47/87/5 57/107/48 37/67/48
f 38/68/57 56/105/57 55/103/58 36/66/58
f 15/36/59 44/81/59 17/40/59
f 15/36/60 45/83/60 14/34/60
f 14/34/1 44/81/1 15/36/1
f 42/77/1 23/52/1 43/79/1
f 43/79/61 23/52/61 21/48/61
f 44/81/1 42/77/1 43/79/1
f 40/73/1 44/81/1 14/34/1
f 12/30/61 46/85/61 13/32/61
f 46/85/1 12/30/1 39/71/1
f 40/73/1 46/85/1 39/71/1
f 40/73/62 41/75/62 42/77/62
f 40/73/1 42/77/1 44/81/1
f 40/73/59 39/71/59 24/54/59
f 46/85/1 40/73/1 14/34/1
f 53/100/63 20/46/63 22/50/63
f 20/46/2 48/90/2 18/42/2
f 20/46/2 53/100/2 57/108/2
f 18/42/64 19/44/64 20/46/64
f 18/42/65 52/98/65 16/38/65
f 52/98/2 18/42/2 48/90/2
f 55/104/66 53/100/66 54/102/66
f 57/108/67 55/104/67 56/106/67
f 20/46/2 57/108/2 48/90/2
f 47/88/68 48/90/68 57/108/68
f 51/96/69 52/98/69 50/94/69
f 50/94/2 48/90/2 49/92/2
f 52/98/66 48/90/66 50/94/66
f 53/100/2 55/104/2 57/108/2
f 71/136/70 58/109/7 96/172/8
f 72/138/26 96/172/71 95/170/26
f 98/177/10 71/136/72 96/172/71
f 72/138/73 95/170/74 94/168/16 73/139/16
f 72/138/74 98/177/12 96/172/12
f 93/166/6 74/140/6 73/139/75 94/168/75
f 92/164/76 75/141/76 74/140/6 93/166/6
f 90/160/25 76/142/25 77/143/21 91/162/21
f 91/162/77 77/143/22 75/141/17 92/164/17
f 89/158/3 78/144/78 76/142/33 90/160/25
f 73/139/16 60/114/16 59/112/74 72/138/74
f 97/174/79 71/136/52 98/177/11
f 60/114/16 73/139/16 74/140/6 99/179/6
f 98/177/12 72/138/14 59/112/14
f 99/179/6 74/140/80 75/141/23 61/116/23
f 77/143/32 100/181/81 61/116/76 75/141/76
f 76/142/33 101/183/33 100/181/32 77/143/32
f 78/144/3 102/185/3 101/183/25 76/142/25
f 78/144/78 89/158/78 62/118/35 79/145/35
f 64/122/40 80/146/40 79/145/43 62/118/43
f 88/156/38 81/147/38 80/146/36 64/122/36
f 80/146/36 65/124/37 63/120/35 79/145/35
f 81/147/38 103/187/38 65/124/82 80/146/82
f 81/147/38 88/156/38 66/126/4 82/148/83
f 102/185/3 78/144/78 79/145/35 63/120/35
f 82/148/4 66/126/4 68/130/54 83/149/84
f 86/152/48 84/150/48 85/151/49 87/154/49
f 87/154/50 85/151/50 83/149/47 68/130/47
f 58/110/72 71/137/72 84/150/55 86/152/85
f 82/148/4 67/128/4 103/187/44 81/147/86
f 67/128/4 82/148/4 83/149/47 69/132/47
f 84/150/48 70/134/48 104/189/49 85/151/57
f 71/137/5 97/175/5 70/134/87 84/150/87
f 85/151/50 104/189/56 69/132/51 83/149/88
f 92/165/60 90/161/60 91/163/60
f 95/171/1 90/161/1 92/165/1
f 90/161/1 86/153/1 62/119/1
f 62/119/1 89/159/1 90/161/1
f 62/119/1 86/153/1 64/123/1
f 64/123/89 68/131/89 88/157/89
f 92/165/90 93/167/90 94/169/90
f 90/161/91 95/171/91 96/173/91
f 90/161/1 96/173/1 86/153/1
f 58/111/59 86/153/59 96/173/59
f 66/127/89 88/157/89 68/131/89
f 64/123/1 87/155/1 68/131/1
f 86/153/1 87/155/1 64/123/1
f 95/171/89 92/165/89 94/169/89
f 103/188/63 63/121/63 65/125/63
f 70/135/2 101/184/2 63/121/2
f 70/135/2 63/121/2 103/188/2
f 101/184/68 102/186/68 63/121/68
f 100/182/2 59/113/2 61/117/2
f 59/113/2 100/182/2 101/184/2
f 69/133/2 103/188/2 67/129/2
f 103/188/2 104/190/2 70/135/2
f 101/184/2 70/135/2 98/178/2
f 97/176/68 98/178/68 70/135/68
f 99/180/2 61/117/2 60/115/2
f 61/117/69 59/113/69 60/115/69
f 98/178/2 59/113/2 101/184/2
f 69/133/66 104/190/66 103/188/66
f 120/222/70 105/191/70 106/194/28
f 121/224/26 106/194/10 141/250/26
f 107/196/11 120/222/5 106/194/11
f 121/224/74 141/250/74 140/248/16 122/225/16
f 121/224/9 107/196/12 106/194/12
f 109/200/6 123/226/6 122/225/75 140/248/75
f 110/202/17 124/227/17 123/226/6 109/200/6
f 139/246/25 125/228/25 126/229/21 112/206/21
f 112/206/21 126/229/32 124/227/17 110/202/17
f 113/208/3 127/230/3 125/228/25 139/246/25
f 122/225/16 108/198/16 143/255/74 121/224/73
f 142/252/72 120/222/72 107/196/10
f 108/198/16 122/225/16 123/226/6 144/257/80
f 107/196/71 121/224/9 143/255/9
f 144/257/6 123/226/6 124/227/23 111/204/23
f 126/229/21 145/259/21 111/204/17 124/227/76
f 125/228/92 146/261/92 145/259/77 126/229/77
f 127/230/93 114/210/93 146/261/18 125/228/18
f 127/230/78 113/208/3 138/244/35 128/231/35
f 137/242/36 129/232/36 128/231/35 138/244/35
f 117/216/94 130/233/94 129/232/40 137/242/40
f 129/232/41 116/214/37 115/212/35 128/231/95
f 130/233/96 147/263/96 116/214/82 129/232/97
f 130/233/38 117/216/39 136/240/4 131/234/4
f 114/210/45 127/230/45 128/231/98 115/212/98
f 131/234/4 136/240/4 118/218/47 132/235/47
f 135/238/87 133/236/87 134/237/50 119/220/50
f 119/220/50 134/237/56 132/235/51 118/218/88
f 105/192/5 120/223/5 133/236/48 135/238/48
f 131/234/4 148/265/4 147/263/38 130/233/38
f 148/265/4 131/234/4 132/235/51 149/267/51
f 133/236/48 151/271/48 150/269/49 134/237/49
f 120/223/5 142/253/5 151/271/87 133/236/87
f 134/237/49 150/269/99 149/267/47 132/235/54
f 112/207/59 113/209/59 139/247/59
f 112/207/1 110/203/1 109/201/1
f 109/201/1 113/209/1 112/207/1
f 136/241/89 137/243/89 138/245/89
f 137/243/91 136/241/91 117/217/91
f 138/245/1 113/209/1 136/241/1
f 105/193/1 113/209/1 109/201/1
f 106/195/61 140/249/61 141/251/61
f 106/195/1 105/193/1 109/201/1
f 113/209/1 105/193/1 136/241/1
f 119/221/1 118/219/1 136/241/1
f 136/241/62 135/239/62 119/221/62
f 135/239/91 136/241/91 105/193/91
f 106/195/1 109/201/1 140/249/1
f 116/215/100 114/211/100 115/213/100
f 114/211/2 116/215/2 147/264/2
f 147/264/66 148/266/66 114/211/66
f 145/260/101 146/262/101 114/211/101
f 145/260/2 144/258/2 111/205/2
f 114/211/2 144/258/2 145/260/2
f 151/272/2 114/211/2 148/266/2
f 148/266/2 150/270/2 151/272/2
f 144/258/2 114/211/2 151/272/2
f 142/254/2 143/256/2 151/272/2
f 143/256/2 108/199/2 144/258/2
f 151/272/2 143/256/2 144/258/2
f 143/256/102 142/254/102 107/197/102
f 149/268/2 150/270/2 148/266/2
usemtl *25
f 4/10/1 3/7/1 2/4/1 8/18/1
f 1/1/2 5/13/2 9/21/2 10/24/2
f 10/25/3 2/5/3 3/8/3 1/2/3
f 3/9/4 4/11/4 5/14/4
f 5/14/4 1/3/4 3/9/4
f 7/17/5 9/22/5 5/15/5 6/16/5
f 8/19/5 7/17/5 6/16/5 4/12/5
f 2/6/6 9/23/6 8/20/6
f 9/23/6 2/6/6 10/26/6
